<?xml version="1.0" encoding="UTF-8" standalone="no"?>
<svg
   width="3in"
   height="2.98611in"
   viewBox="0 0 216 215"
   version="1.1"
   id="svg49"
   sodipodi:docname="configuration.svg"
   inkscape:export-filename="/home/jollion/Dev/bacmman/bacmman-gui/src/main/resources/configuration16.png"
   inkscape:export-xdpi="5.3581419"
   inkscape:export-ydpi="5.3581419"
   inkscape:version="1.1.1 (3bf5ae0d25, 2021-09-20)"
   xmlns:inkscape="http://www.inkscape.org/namespaces/inkscape"
   xmlns:sodipodi="http://sodipodi.sourceforge.net/DTD/sodipodi-0.dtd"
   xmlns="http://www.w3.org/2000/svg"
   xmlns:svg="http://www.w3.org/2000/svg">
  <defs
     id="defs53" />
  <sodipodi:namedview
     id="namedview51"
     pagecolor="#ffffff"
     bordercolor="#666666"
     borderopacity="1.0"
     inkscape:pageshadow="2"
     inkscape:pageopacity="0.0"
     inkscape:pagecheckerboard="0"
     inkscape:document-units="in"
     showgrid="false"
     inkscape:zoom="2.0354659"
     inkscape:cx="274.13871"
     inkscape:cy="186.4438"
     inkscape:window-width="2560"
     inkscape:window-height="1376"
     inkscape:window-x="0"
     inkscape:window-y="0"
     inkscape:window-maximized="1"
     inkscape:current-layer="svg49" />
  <path
     style="fill:#000000;stroke-width:0.317634"
     d="m 92.013117,201.34856 c -1.419742,-0.29691 -19.25207,-5.82883 -19.831019,-6.15195 -0.432311,-0.24128 1.083596,-5.36073 2.10183,-7.09822 0.33508,-0.57176 2.104477,-2.21635 3.931992,-3.65464 3.73067,-2.93611 6.762956,-6.10785 8.621004,-9.0175 3.234746,-5.06553 4.346479,-8.89179 4.904619,-16.88025 0.109678,-1.56978 0.241544,-2.85414 0.293024,-2.85414 0.0515,0 1.883218,0.47502 4.070516,1.05559 3.910687,1.03802 4.095337,1.05558 11.090897,1.05478 6.25384,-6.5e-4 7.51754,-0.0917 10.45154,-0.75254 15.26319,-3.43776 27.03661,-12.62601 33.45439,-26.10859 2.71735,-5.70863 5.11875,-15.70784 5.11875,-21.31391 0,-1.69892 -0.26941,-5.2767 -0.59871,-7.95063 -0.32929,-2.673932 -0.64694,-5.39067 -0.70587,-6.037193 l -0.10716,-1.175495 4.3402,-0.208406 c 7.95498,-0.381981 12.91449,-2.085604 17.48561,-6.006419 3.86773,-3.317483 6.27808,-6.657604 8.65665,-11.995908 0.92941,-2.0859 1.82698,-3.600575 2.47375,-4.174493 1.36099,-1.207717 3.42317,-2.291567 3.72177,-1.956103 0.13269,0.149089 1.58517,5.3733 3.22771,11.609357 3.41891,12.980208 3.52413,13.89448 1.74438,15.155657 -1.77961,1.261084 -9.08003,3.331943 -14.64342,4.153783 l -1.46919,0.21704 0.003,3.16035 c 0.002,3.73504 0.46555,7.1004 1.12257,8.16325 0.74991,1.21312 4.45748,2.84402 10.62865,4.67533 3.14717,0.93394 5.75171,1.71387 5.78786,1.73318 0.17302,0.0924 -5.52766,23.0002 -5.99925,24.10758 -1.08249,2.54185 -2.84972,2.60216 -9.16013,0.31254 -5.38029,-1.95213 -8.0678,-1.83065 -10.48677,0.47404 -1.76792,1.68439 -2.53572,3.42175 -2.55116,5.77271 -0.0179,2.72511 0.90946,4.24232 5.11651,8.37088 4.70661,4.61881 5.38492,6.15628 3.8016,8.61679 -0.71224,1.10683 -5.94372,7.0808 -13.03976,14.89047 l -2.2908,2.52119 -7.12626,-5.74325 c -3.91945,-3.15879 -7.36099,-5.80799 -7.64787,-5.8871 -0.40364,-0.11132 -8.83129,2.89147 -9.19665,3.27679 -0.0447,0.0472 1.03344,4.61028 2.39594,10.14023 1.36252,5.52997 2.4374,10.09546 2.38863,10.14556 -0.13853,0.1423 -17.52176,4.93446 -19.35807,5.33656 -5.33752,1.1688 -7.13365,-0.007 -8.28466,-5.42052 -1.4282,-6.71801 -1.74287,-7.86171 -2.53499,-9.21373 -1.2844,-2.19229 -3.01817,-3.0949 -5.94486,-3.0949 -1.89139,0 -2.57425,0.14918 -3.69774,0.80778 -2.42112,1.41933 -3.32365,3.39503 -4.690239,10.26725 -1.287725,6.47564 -2.675806,7.70032 -7.568148,6.6772 z"
     id="path250" />
  <path
     style="fill:#000000;stroke-width:0.317634"
     d="m 25.777856,145.01151 c -1.592089,-0.29437 -2.345703,-2.30242 -5.356602,-14.27306 -1.037859,-4.12628 -1.964696,-8.19138 -2.059639,-9.03354 -0.308162,-2.73343 0.935609,-3.50311 9.424066,-5.83185 4.25541,-1.16744 6.212175,-2.27276 6.953838,-3.92799 0.272094,-0.60726 0.703878,-2.79213 0.959519,-4.85527 0.255642,-2.06314 0.556452,-3.99875 0.668465,-4.30135 0.236869,-0.63989 0.730105,-0.4675 -10.567087,-3.693216 -4.734185,-1.351765 -7.734429,-2.360988 -7.661754,-2.577268 0.0657,-0.195513 1.507691,-6.06095 3.204429,-13.0343 1.696737,-6.973357 3.126317,-12.719905 3.176844,-12.770105 0.05053,-0.0502 3.501945,0.625861 7.669816,1.502365 4.167873,0.876504 8.003265,1.595674 8.523095,1.598153 3.04299,0.01452 7.004552,-6.970243 5.760477,-10.156492 -0.115631,-0.296151 -2.367634,-3.148005 -5.004451,-6.337458 -2.636817,-3.189453 -4.984603,-6.079146 -5.217302,-6.421538 -0.389894,-0.573691 0.168279,-1.252674 7.113993,-8.653743 4.145395,-4.417164 8.008578,-8.440925 8.584849,-8.94169 2.08075,-1.808114 3.150505,-1.248208 8.857876,4.636175 4.920981,5.073606 5.805169,5.695099 7.63779,5.368578 1.162265,-0.207083 6.503621,-2.829228 7.756507,-3.807777 0.525194,-0.410195 0.419626,-0.959323 -1.927871,-10.028218 -1.365921,-5.276844 -2.45107,-9.614831 -2.411442,-9.639974 0.03962,-0.02515 4.07431,-1.1894 8.965963,-2.587239 6.472575,-1.849602 9.882966,-2.655602 12.526816,-2.960546 1.998091,-0.230462 3.63556,-0.396994 3.63882,-0.370072 0.0031,0.02692 0.522462,1.223228 1.153771,2.658457 0.68381,1.554566 1.787667,5.246857 2.730508,9.133273 0.87047,3.588071 1.63206,6.577866 1.69241,6.643988 0.0604,0.06612 2.23905,-0.288318 4.84152,-0.787646 3.3124,-0.635539 4.93117,-1.095229 5.3965,-1.532475 1.20338,-1.130737 2.56758,-5.071573 5.20628,-15.039676 0.4513,-1.704848 0.5777,-1.888489 1.18342,-1.719273 0.37299,0.104198 5.89767,1.605043 12.27707,3.335211 6.37939,1.730168 11.69645,3.237893 11.81568,3.3505 0.3307,0.312328 -0.25902,2.662536 -0.89219,3.555648 -0.309,0.435855 -2.54224,2.061847 -4.96278,3.613316 -5.24548,3.362153 -7.87928,5.600352 -10.27649,8.732927 -3.7046,4.841026 -5.28148,8.630744 -5.8896,14.154406 -0.18728,1.701092 -0.48957,4.319839 -0.67177,5.819441 l -0.33125,2.726549 -1.27782,-0.216837 c -4.91965,-0.834842 -16.09176,-0.760283 -20.948005,0.139801 -5.054283,0.93679 -11.667179,3.807358 -16.209079,7.036149 -11.817989,8.40128 -19.624477,21.840679 -21.684598,37.331506 -0.334114,2.51231 -0.435968,4.7207 -0.308417,6.68686 0.18895,2.91256 1.54909,10.56353 2.440959,13.73073 l 0.464463,1.64939 -3.292319,0.36914 c -5.96601,0.66893 -10.397489,2.29614 -14.868496,5.45961 -2.437753,1.72483 -4.529601,3.79888 -8.51858,8.44606 -2.873188,3.34728 -4.787155,4.89585 -6.655287,5.38474 -1.644769,0.43045 -2.867777,0.57709 -3.632915,0.43563 z"
     id="path172" />
  <path
     style="fill:#000000;stroke-width:0.317634"
     d="m 56.029417,184.71372 c -9.147455,-2.02345 -16.597746,-9.14014 -19.454995,-18.58383 -3.574066,-11.81293 0.491176,-24.51132 9.965907,-31.13 4.453379,-3.11096 7.603541,-4.16809 14.105392,-4.73351 2.126465,-0.18493 4.405839,-0.49666 5.065275,-0.69272 0.848726,-0.25235 2.291017,-1.42066 4.937252,-3.99939 6.774176,-6.60135 53.481532,-55.801778 54.380562,-57.283196 1.01348,-1.670004 1.06531,-2.474258 0.51697,-8.021817 -0.59925,-6.062716 0.39751,-12.987252 2.5025,-17.384826 2.89992,-6.058318 9.01324,-11.256976 16.52462,-14.05226 l 3.1419,-1.169227 5.56748,0.01684 c 5.07161,0.01534 5.83736,0.09549 8.59773,0.899944 4.31373,1.257145 7.4627,2.589717 7.57518,3.20564 0.0666,0.364881 -2.28579,2.151636 -7.88433,5.988453 -7.72909,5.296943 -13.3921,10.000656 -13.3921,11.123514 0,0.247961 0.59537,2.030191 1.32305,3.960509 0.93078,2.469075 2.60443,5.677959 5.6448,10.822764 2.37696,4.022199 4.40783,7.449076 4.51305,7.615277 0.10522,0.166203 1.45866,-0.712529 3.00764,-1.952736 4.85622,-3.888177 16.64473,-10.920628 19.56886,-11.673817 l 0.80721,-0.207922 0.36066,2.965712 c 1.37539,11.310234 -4.90671,22.784143 -14.83965,27.10375 -3.94456,1.715395 -6.05492,1.988463 -14.52639,1.879635 l -7.62547,-0.09798 -5.22081,5.219014 c -2.87144,2.870454 -13.64378,14.029629 -23.93852,24.798179 -10.29475,10.76855 -20.628907,21.45999 -22.964791,23.75876 -2.335885,2.29877 -4.876049,5.06199 -5.644801,6.14048 l -1.397732,1.96089 v 5.2976 c 0,4.1554 -0.127974,5.82532 -0.593566,7.74513 -2.292482,9.45283 -8.762487,16.54059 -17.964674,19.67995 -2.253675,0.76884 -3.247406,0.9117 -6.959341,1.00042 -2.38164,0.0569 -4.946132,-0.0328 -5.698868,-0.19924 z M 67.047978,173.4319 c 0.64663,-0.31511 2.784286,-2.27045 4.750349,-4.3452 4.433855,-4.679 5.40746,-6.48422 5.163145,-9.57333 -0.177993,-2.2505 -2.42589,-10.77003 -3.340611,-12.66091 -0.322146,-0.66592 -0.956075,-1.518 -1.408728,-1.89349 -1.526363,-1.26618 -7.467029,-2.88849 -12.687844,-3.46487 -1.592262,-0.17578 -2.110657,-0.0944 -3.247692,0.51026 -3.567289,1.89683 -8.47929,6.60995 -9.690928,9.29853 -1.013692,2.24934 -0.94408,3.78337 0.42744,9.41947 1.643028,6.75183 2.338542,8.35241 4.103451,9.44317 1.713213,1.05881 7.357194,3.021 10.433781,3.6274 2.674344,0.52711 3.830942,0.45116 5.497637,-0.36103 z"
     id="path211" />
</svg>
