<?xml version="1.0" encoding="UTF-8" standalone="no"?>
<svg
   width="70.5467mm"
   height="70.5467mm"
   viewBox="0 0 200 200"
   version="1.1"
   id="svg553"
   sodipodi:docname="metadata.svg"
   inkscape:export-filename="/home/jollion/Dev/bacmman/bacmman-gui/src/main/resources/metadata64.png"
   inkscape:export-xdpi="23.042891"
   inkscape:export-ydpi="23.042891"
   inkscape:version="1.1.1 (3bf5ae0d25, 2021-09-20)"
   xmlns:inkscape="http://www.inkscape.org/namespaces/inkscape"
   xmlns:sodipodi="http://sodipodi.sourceforge.net/DTD/sodipodi-0.dtd"
   xmlns="http://www.w3.org/2000/svg"
   xmlns:svg="http://www.w3.org/2000/svg">
  <defs
     id="defs557" />
  <sodipodi:namedview
     id="namedview555"
     pagecolor="#ffffff"
     bordercolor="#666666"
     borderopacity="1.0"
     inkscape:pageshadow="2"
     inkscape:pageopacity="0.0"
     inkscape:pagecheckerboard="0"
     inkscape:document-units="mm"
     showgrid="false"
     inkscape:zoom="3.274161"
     inkscape:cx="133.16389"
     inkscape:cy="133.3166"
     inkscape:window-width="2492"
     inkscape:window-height="1376"
     inkscape:window-x="0"
     inkscape:window-y="0"
     inkscape:window-maximized="1"
     inkscape:current-layer="svg553" />
  <path
     style="fill:#000000;stroke-width:0.305422"
     d="m 107.55354,248.47371 c -0.73112,-0.34215 -2.45856,-1.50387 -3.83875,-2.5816 -3.44613,-2.69094 -80.743324,-80.01096 -82.925957,-82.95045 -2.421659,-3.2614 -3.502739,-5.78791 -3.280295,-7.6661 0.231786,-1.95707 1.431043,-4.32849 3.311545,-6.54827 2.168685,-2.55996 94.835747,-95.348412 97.946127,-98.074423 1.40427,-1.230743 3.37664,-2.787569 4.38303,-3.45961 3.6077,-2.409132 1.75006,-2.269724 31.69959,-2.378917 18.82489,-0.06863 27.32916,0.0043 28.77033,0.246631 1.12526,0.189235 2.98069,0.799477 4.12319,1.356094 1.88404,0.917892 3.21638,2.158534 14.32301,13.337251 13.34738,13.434001 13.44898,13.56193 13.77911,17.348622 0.12437,1.426573 0.0339,1.863005 -0.56996,2.748338 -2.20687,3.235778 -6.28607,2.938927 -10.64382,-0.774568 -0.92286,-0.786425 -6.46595,-6.011113 -12.31797,-11.610416 -11.71912,-11.213025 -12.09767,-11.492886 -16.30631,-12.055159 -1.50277,-0.200772 -9.43626,-0.279534 -21.61571,-0.214595 -21.25655,0.113333 -20.50975,0.04674 -23.75226,2.1181 -0.87876,0.561365 -2.97215,2.209662 -4.65196,3.66288 -2.67282,2.312266 -57.338389,56.911062 -81.773635,81.673752 -9.241043,9.36488 -10.301088,10.73234 -10.308046,13.2974 -0.0034,1.27117 1.057649,3.40939 2.783396,5.60882 0.663602,0.84575 16.010637,16.36916 34.104522,34.49645 25.440059,25.48705 33.401283,33.28876 35.118153,34.41456 5.00581,3.28244 6.4217,2.9941 12.61366,-2.56875 5.30834,-4.769 88.10778,-87.96657 89.72311,-90.15454 2.42086,-3.27904 2.75895,-4.472 3.14655,-11.10282 0.27654,-4.73088 0.18517,-20.68806 -0.12021,-20.99344 -0.0473,-0.0473 -4.46062,1.48825 -9.80728,3.41242 l -9.72119,3.4985 -5.18085,4.80441 c -2.84946,2.64243 -6.1003,5.38658 -7.22409,6.0981 -2.50987,1.58911 -6.15716,2.94247 -9.29009,3.44716 -3.00806,0.48458 -9.46514,0.2305 -12.14743,-0.47799 -8.48748,-2.24185 -14.82088,-8.62959 -17.61494,-17.76606 -0.72943,-2.38522 -0.8229,-3.19434 -0.83933,-7.26547 -0.0221,-5.478704 0.39413,-7.405093 2.57368,-11.911445 1.66067,-3.433521 3.94033,-6.368541 6.78642,-8.737396 7.22817,-6.016139 19.80765,-7.154345 29.25201,-2.646763 3.45028,1.646745 6.90682,4.998065 7.89451,7.654199 1.18545,3.187968 0.755,6.029386 -1.15714,7.638348 -0.80534,0.677645 -1.28154,0.825649 -2.65653,0.825649 -2.22787,0 -4.2299,-0.98828 -7.10488,-3.507243 -3.38489,-2.965734 -4.32524,-3.337118 -8.78342,-3.468938 -4.8316,-0.142861 -5.34934,0.128784 -2.79626,1.467136 2.42205,1.269669 4.15132,2.554175 8.16218,6.062931 5.0761,4.440637 8.43511,5.846542 13.98989,5.855462 10.48676,0.0168 22.65808,-5.973126 33.49231,-16.482762 6.04515,-5.86404 11.07057,-12.622244 14.27672,-19.19941 6.76067,-13.868992 6.42304,-23.606193 -1.07703,-31.061069 -1.74177,-1.731272 -3.07667,-2.749659 -4.52171,-3.449591 -7.82891,-3.792086 -18.57101,-1.799284 -31.84208,5.907131 -4.6536,2.702316 -6.90581,3.594229 -9.17204,3.6323 -3.18103,0.05344 -5.5424,-2.016554 -5.2585,-4.609639 0.32167,-2.938186 2.51883,-5.767925 6.57537,-8.468471 10.27114,-6.837779 26.02497,-11.090654 35.79244,-9.662461 7.9609,1.164037 15.0184,4.795477 19.27464,9.917775 7.94384,9.560237 8.42401,25.524326 1.27315,42.327687 -3.45573,8.120398 -8.2972,15.094185 -16.10172,23.19335 -5.44441,5.649942 -5.85249,6.396362 -6.272,11.47202 -0.16661,2.01578 -0.3051,9.66005 -0.30776,16.98726 -0.005,14.39206 -0.1864,16.62852 -1.66546,20.55803 -1.52076,4.04027 -3.70221,6.81917 -9.82097,12.5107 -17.89505,16.64557 -28.02867,26.50102 -59.07083,57.4493 -30.77268,30.67961 -35.52115,35.29646 -37.19477,36.16379 -2.49858,1.29484 -4.61012,1.51002 -6.43546,0.65581 z m 60.06401,-132.72627 c 1.12576,-0.25605 2.73554,-0.85888 3.57728,-1.33962 1.5942,-0.91048 4.7281,-3.56285 4.7281,-4.00161 0,-0.13892 -0.72156,-0.48806 -1.60346,-0.77587 -2.04334,-0.66685 -5.96495,-2.60345 -7.81096,-3.85727 -4.99962,-3.39576 -8.30004,-8.921573 -8.30004,-13.896555 v -1.929807 h -2.09366 -2.09365 l -1.23828,2.67244 c -2.51813,5.434614 -2.99559,9.287192 -1.64428,13.267652 2.55724,7.53269 9.21046,11.51382 16.47895,9.86064 z"
     id="path596"
     transform="scale(0.75009411)" />
  <path
     style="fill:#000000;stroke-width:0.305422"
     d="m 80.448418,163.60034 c -2.261785,-1.05989 -3.067235,-2.7172 -3.49318,-7.18761 -0.417371,-4.38042 -0.4081,-22.73035 0.01296,-25.65307 0.833813,-5.78777 2.268977,-8.18798 5.504091,-9.20519 1.502411,-0.4724 3.275521,-0.51951 17.536631,-0.46591 14.95103,0.0562 15.93117,0.0933 17.00957,0.64342 1.8587,0.94824 2.81769,2.47449 2.93615,4.67294 0.13586,2.52152 -0.69409,4.01349 -2.8254,5.07915 l -1.5271,0.76355 -13.51492,0.0883 -13.514911,0.0884 -0.0094,11.67038 c -0.01022,12.65198 -0.219745,15.49268 -1.284514,17.41549 -1.274215,2.30103 -4.362873,3.24624 -6.829949,2.09014 z"
     id="path635"
     transform="scale(0.75009411)" />
  <path
     style="fill:#000000;stroke-width:0.305422"
     d="m 119.72533,189.54112 c -14.79415,-0.20002 -14.39573,-0.14171 -16.08307,-2.35392 -0.66571,-0.8728 -0.86483,-1.50068 -0.94443,-2.97819 -0.13587,-2.52152 0.69408,-4.0135 2.82539,-5.07915 l 1.52711,-0.76355 13.51491,-0.0884 13.51491,-0.0883 0.006,-11.82309 c 0.006,-12.40344 0.20529,-15.18755 1.22862,-17.19343 1.05928,-2.07637 3.57746,-3.09595 6.02118,-2.43792 1.6772,0.45162 2.62949,1.27994 3.4387,2.99105 0.85738,1.81296 1.18209,6.99067 1.20284,19.18003 0.015,8.81154 -0.24914,12.08794 -1.23073,15.26598 -1.19318,3.86306 -3.51735,5.30345 -8.81225,5.46135 -1.60787,0.048 -8.90202,0.006 -16.20923,-0.0924 z"
     id="path674"
     transform="scale(0.75009411)" />
</svg>
