<?xml version="1.0" encoding="UTF-8" standalone="no"?>
<svg
   width="286.772mm"
   height="286.772mm"
   viewBox="0 0 813 813"
   version="1.1"
   id="svg3"
   sodipodi:docname="neural_network.svg"
   inkscape:version="1.1.1 (3bf5ae0d25, 2021-09-20)"
   inkscape:export-filename="/home/jollion/Dev/bacmman/bacmman-gui/src/main/resources/neural_network64.png"
   inkscape:export-xdpi="5.6686149"
   inkscape:export-ydpi="5.6686149"
   xmlns:inkscape="http://www.inkscape.org/namespaces/inkscape"
   xmlns:sodipodi="http://sodipodi.sourceforge.net/DTD/sodipodi-0.dtd"
   xmlns="http://www.w3.org/2000/svg"
   xmlns:svg="http://www.w3.org/2000/svg">
  <defs
     id="defs7" />
  <sodipodi:namedview
     id="namedview5"
     pagecolor="#ffffff"
     bordercolor="#666666"
     borderopacity="1.0"
     inkscape:pageshadow="2"
     inkscape:pageopacity="0.0"
     inkscape:pagecheckerboard="0"
     inkscape:document-units="mm"
     showgrid="false"
     inkscape:zoom="0.2847705"
     inkscape:cx="790.10993"
     inkscape:cy="416.12456"
     inkscape:window-width="2492"
     inkscape:window-height="1376"
     inkscape:window-x="0"
     inkscape:window-y="0"
     inkscape:window-maximized="1"
     inkscape:current-layer="svg3" />
  <path
     style="fill:#000000;stroke-width:1.13227"
     d="m 388.28145,731.13258 c -12.23248,-4.81227 -22.83423,-14.33863 -29.76161,-26.74267 -6.3735,-11.41226 -7.60486,-16.67633 -7.67009,-32.78961 l -0.0587,-14.52334 -81.00985,-35.96574 c -44.55541,-19.78116 -83.44544,-36.93182 -86.42228,-38.11259 -6.32878,-2.5103 -6.84832,-2.31367 -16.24953,6.15021 -11.57063,10.417 -20.80644,13.9513 -36.53967,13.98277 -12.52055,0.025 -21.71402,-2.72456 -31.113175,-9.3054 -16.042067,-11.23187 -25.456627,-30.48698 -25.456627,-52.06509 0,-17.29646 4.795698,-29.79845 16.318209,-42.54019 14.577213,-16.11966 35.163703,-22.10615 55.851133,-16.24134 3.14415,0.89135 4.69669,0.80167 6.27959,-0.36277 1.15653,-0.85078 12.85516,-17.98653 25.99695,-38.07943 18.46065,-28.22507 23.88922,-37.33651 23.87238,-40.06797 -0.0167,-2.70949 -5.59852,-11.9323 -23.89328,-39.47873 -13.12932,-19.76882 -24.73952,-36.57432 -25.80045,-37.34555 -1.50442,-1.09363 -3.4852,-1.0379 -9.00017,0.25322 -19.23111,4.5022 -36.63318,-0.87235 -51.454543,-15.89153 -11.538823,-11.69283 -17.10187,-25.90429 -17.055344,-43.56992 0.04918,-18.67202 4.747494,-31.37729 16.201812,-43.81322 11.743405,-12.7498 22.738815,-17.51025 40.498765,-17.53393 16.99844,-0.0226 27.04636,4.35787 40.39599,17.61117 l 6.28513,6.23977 5.13762,-2.10296 c 14.45668,-5.91755 164.05501,-76.22464 165.77278,-77.90864 1.62611,-1.59416 2.00799,-3.75859 2.02959,-11.50336 0.0501,-17.98112 4.85955,-30.77064 16.26853,-43.262189 12.02664,-13.167838 28.07237,-19.791238 43.95518,-18.143937 21.47359,2.227152 37.64416,13.866619 46.79604,33.683466 3.29525,7.13529 4.56284,12.57695 6.72903,28.88714 0.37402,2.81609 5.78411,9.57569 24.05146,30.05097 12.96288,14.52968 27.27525,30.66125 31.80526,35.84794 4.53001,5.18669 29.07103,32.76288 54.5356,61.28042 25.46457,28.51754 52.5644,59.00927 60.22186,67.75941 7.65746,8.75013 14.65443,16.36366 15.54885,16.91894 1.05371,0.65418 3.9809,-0.0501 8.31463,-2.00046 9.60126,-4.321 15.18894,-5.65778 23.52976,-5.62923 23.80234,0.0815 44.78261,15.76225 53.42333,39.92889 2.00605,5.61049 2.43432,9.26255 2.52,21.49003 0.0887,12.65174 -0.24678,15.72952 -2.377,21.8065 -6.33038,18.05873 -22.96638,33.84396 -40.34725,38.28391 -8.39611,2.14479 -25.14143,0.99016 -33.03957,-2.27818 -3.43352,-1.42084 -7.34989,-2.41495 -8.70304,-2.20913 -2.65116,0.40324 -28.61629,28.71617 -100.87499,109.99624 -23.61305,26.56107 -53.31036,59.70911 -65.99403,73.66229 -20.35775,22.39536 -23.14501,25.91824 -23.77597,30.05098 -2.76556,18.11452 -4.9211,24.02375 -12.96944,35.55453 -5.68231,8.14099 -14.73988,15.31772 -24.32484,19.2737 -4.67919,1.9312 -9.36822,2.70112 -18.75021,3.07866 -11.17458,0.44963 -13.27816,0.20143 -19.69778,-2.32405 z M 491.58407,629.95999 c 40.16469,-45.366 108.42809,-121.80959 131.3789,-147.12235 11.45973,-12.63908 21.40441,-24.18431 22.0993,-25.65607 1.48876,-3.15315 1.31216,-3.53859 -5.65838,-12.34956 -3.77009,-4.76554 -6.13807,-6.77621 -7.98039,-6.77621 -4.42518,0 -162.1989,58.2405 -164.87148,60.86056 -1.03382,1.0135 -2.18643,3.51124 -2.56135,5.55055 -1.45138,7.89439 -5.02862,18.07785 -8.13301,23.15258 -10.64021,17.39348 -30.05194,29.46174 -47.38904,29.46174 -7.38209,0 -21.03373,-3.86235 -28.02506,-7.92893 -14.75718,-8.58363 -28.95825,-31.95118 -29.0212,-47.75376 -0.008,-1.78244 -0.57458,-3.24079 -1.26107,-3.24079 -2.47218,0 -60.23887,14.54192 -61.14109,15.39136 -0.50818,0.47848 -0.59757,1.98398 -0.19863,3.34559 0.61414,2.09613 49.31225,76.61244 67.65872,103.52926 6.87215,10.08241 8.76528,10.604 15.70179,4.32612 29.26629,-26.48737 74.6768,-12.10096 88.14964,27.92648 1.57882,4.69063 2.89447,6.92051 3.94674,6.68922 0.86814,-0.19081 13.15566,-13.42341 27.30561,-29.40579 z m -135.34085,15.24423 c 2.67026,-4.12978 2.01332,-8.34173 -2.38605,-15.29805 -2.24375,-3.54784 -19.71791,-30.15079 -38.83148,-59.11765 -24.74359,-37.49925 -35.48107,-52.86526 -37.28378,-53.35538 -2.57559,-0.70026 -82.24308,18.65529 -87.3388,21.21932 -2.36063,1.18781 -2.81277,2.37801 -3.42464,9.01478 -0.38771,4.20546 -1.73396,10.80977 -2.99167,14.67625 -1.25771,3.86649 -2.28674,7.91258 -2.28674,8.99131 0,1.38911 3.57064,3.5571 12.23866,7.43095 97.20023,43.44004 155.30501,68.84403 157.68101,68.93968 1.87993,0.0756 3.53689,-0.8207 4.62349,-2.50121 z M 231.19863,519.38846 c 20.34336,-5.17046 38.09959,-9.68901 39.45828,-10.04125 2.42261,-0.62806 2.38243,-0.78218 -2.07945,-7.97727 -10.20603,-16.45789 -28.41198,-43.28015 -29.37697,-43.28015 -1.70287,0 -58.57799,48.262 -58.71359,49.82205 -0.35735,4.11164 3.06468,15.40285 5.88351,19.41303 1.81961,2.58864 7.08369,1.65668 44.82822,-7.93641 z m 85.58633,-21.31552 c 15.75262,-3.93559 29.8228,-7.78035 31.26705,-8.54389 2.03586,-1.07633 3.3143,-3.7716 5.68929,-11.99452 1.68486,-5.83342 3.07331,-10.73222 3.08546,-10.88619 0.0122,-0.15398 -13.74238,-12.21857 -30.56561,-26.81019 -18.45096,-16.00344 -31.5085,-26.52774 -32.90838,-26.52401 -3.05896,0.008 -4.87436,1.35972 -26.67149,19.85655 -10.2004,8.65597 -18.8348,16.72318 -19.18755,17.92715 -0.8621,2.9424 0.0834,4.69299 13.96037,25.84745 17.84418,27.20221 18.72481,28.28328 23.03925,28.28328 2.00776,0 16.53898,-3.22003 32.29161,-7.15563 z m -138.60316,0.0863 c 1.95412,-1.29065 15.51775,-12.45937 30.14137,-24.81938 l 26.58841,-22.47274 -10.45196,-16.71726 c -11.90045,-19.03406 -13.72109,-21.41123 -15.74392,-20.55658 -2.61631,1.10539 -48.73444,72.4457 -48.76437,75.43377 -0.01,0.95202 12.82155,11.49058 13.98127,11.48324 0.38293,-0.003 2.29507,-1.06039 4.2492,-2.35105 z m 432.81599,-62.02772 c 7.8492,-2.88701 15.13792,-5.93561 16.19716,-6.77463 1.76912,-1.40133 1.81725,-2.33036 0.59125,-11.41318 -0.82385,-6.10353 -1.04915,-13.79498 -0.5887,-20.09717 l 0.74594,-10.2095 -5.81753,-2.32268 c -3.19965,-1.27748 -17.81142,-6.6008 -32.47061,-11.8296 -14.65919,-5.22882 -48.28064,-17.2337 -74.71434,-26.67753 -26.43369,-9.44383 -49.28007,-17.17059 -50.76972,-17.17059 -2.36758,0 -3.00537,0.96648 -5.06749,7.67917 -4.70235,15.30725 -14.37854,27.30366 -28.54849,35.39407 -20.91386,11.94088 -43.73393,8.51591 -63.34653,-9.50743 -6.33876,-5.82512 -7.76571,-6.64922 -9.95055,-5.7468 -2.39521,0.9893 -56.97913,46.29623 -56.97913,47.29504 0,2.31345 5.45275,7.70171 26.13882,25.82965 24.74577,21.68558 32.03593,27.50948 34.43546,27.50948 0.76536,0 4.61733,-3.16675 8.55992,-7.03723 13.1325,-12.8922 29.67425,-19.04688 44.72968,-16.64249 24.4675,3.9075 42.33463,21.32664 48.69486,47.47393 l 1.91798,7.88489 65.98537,-24.19414 c 36.29196,-13.30677 72.40746,-26.55623 80.25665,-29.44326 z m -349.3385,-8.12997 c 9.57335,-8.10693 18.78365,-16.36673 20.46734,-18.35509 2.67537,-3.1595 2.88107,-3.8984 1.63182,-5.86169 -0.78619,-1.23556 -10.73081,-10.43087 -22.09916,-20.434 -19.71596,-17.34828 -20.76402,-18.09634 -22.71301,-16.21146 -3.87497,3.74747 -22.46704,33.08963 -23.084,36.43135 -0.52445,2.84058 0.90813,5.66971 9.42994,18.62268 12.26752,18.64634 13.83837,20.58017 16.70288,20.56223 1.24195,-0.008 10.09084,-6.64708 19.66419,-14.75402 z m 62.42581,-53.19888 c 15.74418,-13.40002 28.90385,-25.14865 29.2437,-26.10806 0.33986,-0.9594 -0.0231,-4.18157 -0.80638,-7.16038 -0.78337,-2.97881 -2.05779,-8.54559 -2.83206,-12.37063 -0.77426,-3.82504 -2.09417,-7.69821 -2.93313,-8.60704 -2.08724,-2.26104 -54.31368,-15.9273 -61.5651,-16.10993 l -5.83996,-0.14709 -14.00443,21.21245 c -17.47131,26.46374 -19.80432,30.56394 -18.984,33.36377 0.96482,3.29302 43.85854,40.29058 46.71153,40.29058 1.4535,0 13.5572,-9.50958 31.00983,-24.36367 z m -101.08179,2.47544 c 5.4551,-8.28516 8.73926,-14.40576 8.73926,-16.28709 0,-1.90589 -1.29985,-4.28436 -3.53561,-6.46947 -7.06495,-6.9049 -49.59104,-43.41365 -51.48715,-44.20185 -1.31163,-0.54523 -3.79466,0.56809 -7.6015,3.40829 -7.58613,5.65984 -9.90809,8.53313 -8.58619,10.62491 0.57318,0.907 11.5656,17.55483 24.42759,36.99516 l 23.38545,35.34606 2.95945,-3.07143 c 1.62769,-1.68929 6.89211,-9.04435 11.6987,-16.34458 z m 410.20222,-0.79731 c 1.12537,-1.45836 4.02561,-5.20279 6.44497,-8.32096 2.44092,-3.14596 4.39883,-6.91744 4.39883,-8.47335 0,-2.87407 -6.28922,-10.44191 -39.66321,-47.7269 -8.41247,-9.39829 -32.18009,-36.17517 -52.81696,-59.50417 -68.2347,-77.13609 -85.60533,-96.05381 -88.19859,-96.05381 -0.41566,0 -2.51557,4.0143 -4.66649,8.92065 -7.70329,17.57169 -22.43462,30.00462 -40.38998,34.08831 -9.51596,2.16427 -12.26454,2.16287 -21.73864,-0.0106 -10.01481,-2.29801 -16.97888,-6.12416 -25.58417,-14.05627 -3.88917,-3.58492 -7.61045,-6.52539 -8.26951,-6.53437 -0.65905,-0.009 -16.35713,23.18479 -34.88461,51.54172 -33.59513,51.41843 -40.61484,62.58912 -40.61028,64.62438 0.002,1.01446 16.36578,5.33678 44.6007,11.78099 6.88084,1.57045 13.5306,3.10652 14.77722,3.41348 1.95854,0.48225 2.44236,-0.2667 3.55972,-5.5105 5.71781,-26.83404 30.23193,-48.08787 55.46392,-48.08787 13.32935,0 28.98113,7.44859 39.42497,18.76209 8.60084,9.31704 13.39218,19.21621 15.72777,32.49447 0.91141,5.18149 2.39247,10.21749 3.29125,11.19112 1.62275,1.75789 161.29852,59.7878 165.10085,60.00152 1.09235,0.0614 2.90686,-1.08157 4.03224,-2.53992 z M 253.10124,331.11702 c 13.21224,-19.8714 19.6209,-30.61824 18.74562,-31.43499 -0.21816,-0.20356 -6.51597,-1.81015 -13.99516,-3.57022 -7.47917,-1.76007 -26.00914,-6.39104 -41.17771,-10.29104 -15.16857,-3.90002 -27.9826,-6.64087 -28.47563,-6.09079 -1.18444,1.3215 -7.58618,18.90234 -7.58618,20.83362 0,0.82822 1.59103,3.15242 3.53561,5.16488 6.40088,6.62429 52.46202,46.27532 53.77027,46.28732 0.70403,0.006 7.53645,-9.398 15.18318,-20.89878 z m 38.39075,-58.63619 c 50.22195,-76.20422 65.35685,-100.11257 65.35685,-103.24314 0,-1.8136 -0.58176,-4.6806 -1.2928,-6.37111 -1.06174,-2.52431 -1.79088,-2.93862 -4.07956,-2.31809 -6.43833,1.74565 -165.8555,76.74511 -166.86722,78.50441 -0.7911,1.37566 -0.41548,5.24894 1.31427,13.5524 3.84411,18.45325 3.24446,17.27777 9.93893,19.48304 13.78874,4.54225 74.85052,19.58279 78.85139,19.42243 4.33215,-0.17364 4.40686,-0.25838 16.77814,-19.02994 z"
     id="path508" />
</svg>
