<?xml version="1.0" encoding="UTF-8" standalone="no"?>
<svg
   width="286.772mm"
   height="286.772mm"
   viewBox="0 0 813 813"
   version="1.1"
   id="svg3"
   sodipodi:docname="nn2.svg"
   inkscape:version="1.1.1 (3bf5ae0d25, 2021-09-20)"
   xmlns:inkscape="http://www.inkscape.org/namespaces/inkscape"
   xmlns:sodipodi="http://sodipodi.sourceforge.net/DTD/sodipodi-0.dtd"
   xmlns="http://www.w3.org/2000/svg"
   xmlns:svg="http://www.w3.org/2000/svg">
  <defs
     id="defs7" />
  <sodipodi:namedview
     id="namedview5"
     pagecolor="#ffffff"
     bordercolor="#666666"
     borderopacity="1.0"
     inkscape:pageshadow="2"
     inkscape:pageopacity="0.0"
     inkscape:pagecheckerboard="0"
     inkscape:document-units="mm"
     showgrid="false"
     inkscape:zoom="1.139082"
     inkscape:cx="605.31202"
     inkscape:cy="535.08002"
     inkscape:window-width="2492"
     inkscape:window-height="1376"
     inkscape:window-x="0"
     inkscape:window-y="0"
     inkscape:window-maximized="1"
     inkscape:current-layer="svg3" />
  <path
     style="fill:#000000;stroke-width:1.7558"
     d="m 512.50646,1025.7255 c -19.74278,-7.1698 -36.85361,-21.3631 -48.03416,-39.84386 -10.2866,-17.00311 -12.27397,-24.84604 -12.37925,-48.8532 l -0.0948,-21.6383 -130.74696,-53.58529 c -71.91082,-29.47193 -134.67791,-55.02466 -139.48243,-56.78389 -10.21442,-3.7401 -11.05293,-3.44714 -26.22614,9.16319 -18.67459,15.52027 -33.58085,20.78602 -58.973715,20.8329 -20.207707,0.0373 -35.045638,-4.05932 -50.215532,-13.8641 C 20.462159,804.4186 5.2673997,775.73045 5.2673997,743.58126 c 0,-25.76998 7.7400833,-44.39667 26.3369983,-63.38057 23.52709,-24.01665 56.752945,-32.93592 90.141702,-24.19794 5.07454,1.32802 7.58029,1.1944 10.13503,-0.54049 1.8666,-1.26758 20.74777,-26.79811 41.95814,-56.73449 29.79482,-42.05248 38.55633,-55.62761 38.52915,-59.6972 -0.0269,-4.03687 -9.0358,-17.77791 -38.56289,-58.8193 -21.19024,-29.45354 -39.92868,-54.49202 -41.64098,-55.64107 -2.42808,-1.6294 -5.62499,-1.54637 -14.52596,0.37727 C 86.600276,431.65529 58.513965,423.64776 34.592829,401.2707 15.969587,383.84957 6.9910307,362.67594 7.0661219,336.35595 7.1454911,308.53653 14.728405,289.60697 33.215259,271.0787 c 18.953438,-18.99591 36.69962,-26.0885 65.363538,-26.12377 27.434863,-0.0337 43.651853,6.49277 65.197663,26.23885 l 10.14397,9.29662 8.29194,-3.1332 c 23.33256,-8.81654 264.77884,-113.56696 267.55126,-116.07596 2.62448,-2.37513 3.24082,-5.59992 3.27567,-17.13883 0.0809,-26.79005 7.84314,-45.845125 26.25682,-64.456271 19.41056,-19.618742 45.3078,-29.486935 70.94207,-27.032624 34.6576,3.318231 60.75631,20.659854 75.52712,50.184945 5.31841,10.63086 7.36425,18.73838 10.86041,43.0389 0.60365,4.19569 9.33533,14.26681 38.81818,44.77289 20.92162,21.64775 44.02127,45.68216 51.33254,53.4098 7.31126,7.72764 46.91958,48.81336 88.01848,91.30159 41.09889,42.48824 84.83704,87.91782 97.19589,100.95464 12.35886,13.03681 23.65173,24.38019 25.09529,25.20751 1.70064,0.97466 6.42502,-0.0746 13.4195,-2.98049 15.49609,-6.43784 24.5144,-8.42951 37.97619,-8.38697 38.41611,0.1215 72.27751,23.48414 86.22331,59.48998 3.2377,8.35907 3.9289,13.80027 4.0672,32.01796 0.1431,18.84981 -0.3983,23.4354 -3.8364,32.48948 -10.217,26.90567 -37.0669,50.42406 -65.119,57.03914 -13.55102,3.19552 -40.57736,1.47523 -53.32466,-3.39427 -5.54158,-2.1169 -11.86246,-3.59802 -14.0464,-3.29137 -4.27887,0.60078 -46.18565,42.78417 -162.80858,163.88322 -38.1106,39.5733 -86.04099,88.96051 -106.51197,109.74934 -32.85667,33.3668 -37.3552,38.61554 -38.37355,44.7729 -4.46352,26.9888 -7.94248,35.79295 -20.93221,52.97264 -9.17103,12.12925 -23.78963,22.82185 -39.2594,28.71585 -7.55205,2.8773 -15.11998,4.0244 -30.26216,4.5869 -18.03537,0.6699 -21.43047,0.3001 -31.79151,-3.4626 z M 679.23314,874.98862 C 744.0575,807.39788 854.23215,693.5047 891.27393,655.79126 c 18.49558,-18.83095 34.54594,-36.03217 35.66746,-38.22494 2.40281,-4.69787 2.11779,-5.27214 -9.13241,-18.3996 -6.08479,-7.10016 -9.90662,-10.09585 -12.88007,-10.09585 -7.14207,0 -261.78313,86.77242 -266.09658,90.67604 -1.66856,1.51002 -3.52883,5.2314 -4.13393,8.26976 -2.34248,11.76184 -8.11601,26.93416 -13.12638,34.49499 -17.17291,25.91452 -48.50274,43.895 -76.48419,43.895 -11.91443,0 -33.94769,-5.75451 -45.23144,-11.81329 -23.81755,-12.78874 -46.73757,-47.60402 -46.83917,-71.14826 -0.0123,-2.65565 -0.92735,-4.82845 -2.03531,-4.82845 -3.99002,0 -97.22335,21.66598 -98.6795,22.93157 -0.82019,0.71288 -0.96446,2.95593 -0.32059,4.98458 0.9912,3.12302 79.58818,114.14476 109.19872,154.24809 11.09141,15.02177 14.14684,15.79888 25.34213,6.44547 47.23472,-39.46348 120.52564,-18.0292 142.27031,41.60763 2.54816,6.98856 4.67158,10.31085 6.3699,9.96626 1.40115,-0.2843 21.23276,-19.99953 44.07026,-43.81164 z m -218.43522,22.71235 c 4.3097,-6.15296 3.24942,-12.42833 -3.851,-22.79255 -3.62133,-5.28592 -31.82399,-44.9216 -62.67259,-88.07928 -39.93526,-55.87008 -57.26517,-78.76387 -60.17468,-79.49411 -4.15691,-1.04331 -132.73734,27.79449 -140.96166,31.61464 -3.80996,1.76972 -4.53971,3.54299 -5.52724,13.4311 -0.62575,6.26571 -2.79855,16.10546 -4.82845,21.86613 -2.0299,5.76067 -3.69071,11.78893 -3.69071,13.39614 0,2.06963 5.76289,5.29971 19.75275,11.07135 156.87765,64.72126 250.65666,102.57062 254.49143,102.71312 3.03415,0.11272 5.70842,-1.22275 7.46215,-3.72654 z M 258.98049,710.24826 c 32.83345,-7.70345 61.49136,-14.43564 63.68423,-14.96044 3.91001,-0.93575 3.84516,-1.16537 -3.35616,-11.88532 -16.47216,-24.52059 -45.85591,-64.48303 -47.41336,-64.48303 -2.74837,0 -94.54276,71.90548 -94.7616,74.22979 -0.57676,6.12593 4.94627,22.94869 9.49576,28.92345 2.93679,3.85681 11.43282,2.46829 72.35113,-11.82445 z m 138.13323,-31.75795 c 25.42416,-5.86363 48.13292,-11.59193 50.46389,-12.72954 3.2858,-1.60361 5.34915,-5.6193 9.1823,-17.87061 2.7193,-8.69121 4.96021,-15.98991 4.97982,-16.21932 0.0197,-0.22941 -22.1797,-18.20442 -49.33178,-39.94445 -29.77919,-23.8435 -50.85358,-39.52365 -53.11294,-39.51809 -4.93705,0.0123 -7.86704,2.02585 -43.04681,29.58425 -16.46308,12.89651 -30.39869,24.91584 -30.96801,26.70963 -1.3914,4.38388 0.13467,6.99207 22.53153,38.51008 28.79986,40.52852 30.22116,42.1392 37.18451,42.1392 3.24045,0 26.69332,-4.79751 52.11749,-10.66115 z m -223.70048,0.12853 c 3.15389,-1.92294 25.04509,-18.5632 48.64708,-36.97836 l 42.91273,-33.4821 -16.86908,-24.90702 c -19.20689,-28.35881 -22.14534,-31.90055 -25.41011,-30.62721 -4.22263,1.64692 -78.65563,107.93673 -78.70394,112.38866 -0.0155,1.41841 20.69352,17.11979 22.56527,17.10885 0.61804,-0.004 3.70416,-1.57987 6.85805,-3.50282 z m 698.54932,-92.415 c 12.66832,-4.30136 24.43206,-8.84346 26.14163,-10.09352 2.8553,-2.08783 2.93297,-3.472 0.95426,-17.00448 -1.32967,-9.09364 -1.6933,-20.55311 -0.95014,-29.94274 l 1.20392,-15.21111 -9.38928,-3.46056 c -5.16412,-1.90331 -28.74699,-9.83452 -52.4064,-17.62491 -23.6594,-7.7904 -77.9232,-25.67645 -120.58623,-39.7468 -42.66302,-14.07035 -79.53624,-25.58244 -81.94049,-25.58244 -3.82118,0 -4.85056,1.43996 -8.17875,11.44119 -7.58942,22.80625 -23.20644,40.67967 -46.07622,52.73357 -33.75422,17.7907 -70.58497,12.68783 -102.239,-14.16511 -10.23054,-8.67884 -12.53357,-9.90667 -16.05983,-8.56215 -3.86578,1.47396 -91.96225,68.97668 -91.96225,70.46481 0,3.44681 8.80054,11.47477 42.18711,38.48355 39.93878,32.30932 51.70482,40.98633 55.57758,40.98633 1.23526,0 7.4522,-4.71814 13.81541,-10.48475 21.19537,-19.20808 47.89316,-28.37792 72.19208,-24.79563 39.48966,5.82178 68.32655,31.77453 78.59173,70.73134 l 3.09555,11.74769 106.498,-36.04681 c 58.57391,-19.82574 116.86301,-39.56609 129.53132,-43.86747 z M 308.14288,574.09101 c 15.45104,-12.07851 30.31614,-24.38477 33.03355,-27.34723 4.31795,-4.70732 4.64994,-5.80822 2.6337,-8.73331 -1.26888,-1.84087 -17.31914,-15.54094 -35.66725,-30.44459 -31.82083,-25.84718 -33.51237,-26.96171 -36.65797,-24.15343 -6.25406,5.58335 -36.26099,49.30019 -37.25674,54.27901 -0.84644,4.23218 1.46569,8.44729 15.21959,27.7459 19.79933,27.78116 22.33463,30.66236 26.95783,30.63564 2.00447,-0.0123 16.28625,-9.90347 31.73729,-21.98199 z m 100.753,-79.26093 c 25.41053,-19.96467 46.64976,-37.46893 47.19827,-38.89836 0.54853,-1.42941 -0.0372,-6.23012 -1.30147,-10.66824 -1.26433,-4.43812 -3.3212,-12.73206 -4.57084,-18.43098 -1.24962,-5.69892 -3.37991,-11.46955 -4.73397,-12.82361 -3.36873,-3.36873 -87.66031,-23.73007 -99.36384,-24.00217 l -9.42547,-0.21914 -22.60264,31.6044 c -28.19807,39.42827 -31.96347,45.53716 -30.6395,49.70862 1.55719,4.90627 70.7861,60.02887 75.39072,60.02887 2.3459,0 21.88083,-14.1683 50.04874,-36.29939 z m -163.14234,3.68816 c 8.80433,-12.34406 14.10485,-21.46312 14.10485,-24.26612 0,-2.83958 -2.09792,-6.38326 -5.70635,-9.63885 -11.40257,-10.2876 -80.03814,-64.68193 -83.0984,-65.85626 -2.11692,-0.81234 -6.12444,0.84639 -12.26854,5.078 -12.24374,8.43258 -15.99129,12.71349 -13.8578,15.83003 0.9251,1.35135 18.66646,26.15492 39.42525,55.11904 l 37.74327,52.66204 4.77644,-4.57613 c 2.62703,-2.51686 11.12361,-13.47515 18.88128,-24.35175 z m 662.05151,-1.18792 c 1.81631,-2.1728 6.49718,-7.75163 10.40194,-12.39738 3.93956,-4.68717 7.09956,-10.30629 7.09956,-12.62443 0,-4.28207 -10.15058,-15.55739 -64.01499,-71.10823 C 847.71415,387.19777 809.35407,347.30294 776.04691,312.54511 665.91858,197.62017 637.883,169.43469 633.69758,169.43469 c -0.67086,0 -4.06004,5.98089 -7.53154,13.29086 -12.43284,26.18003 -36.20867,44.70383 -65.18797,50.78811 -15.35842,3.22455 -19.79452,3.22246 -35.08538,-0.0158 -16.16354,-3.42381 -27.40329,-9.12438 -41.29192,-20.94241 -6.27698,-5.34118 -12.28299,-9.72218 -13.34669,-9.73555 -1.06368,-0.0134 -26.39982,34.54298 -56.3025,76.79192 -54.22131,76.60824 -65.55088,93.25143 -65.54352,96.28376 0.004,1.51145 26.41378,7.95127 71.98392,17.55249 11.10543,2.33981 21.8379,4.62839 23.8499,5.08573 3.16101,0.71851 3.94188,-0.39736 5.74526,-8.21009 9.22833,-39.97998 48.79324,-71.64603 89.51676,-71.64603 21.51308,0 46.77449,11.09764 63.63047,27.9536 13.88144,13.88144 21.61449,28.63021 25.38405,48.41346 1.47098,7.7199 3.86136,15.22303 5.31196,16.67364 2.61906,2.61907 260.32996,89.07775 266.46678,89.39617 1.76302,0.0915 4.69157,-1.61143 6.50789,-3.78423 z M 294.3305,429.74295 c 21.32408,-29.60637 31.66743,-45.61807 30.25475,-46.83495 -0.35209,-0.30328 -10.51654,-2.69694 -22.58767,-5.31926 -12.07112,-2.62233 -41.97782,-9.522 -66.45934,-15.33261 -24.48152,-5.81063 -45.1629,-9.89422 -45.95863,-9.07466 -1.91164,1.9689 -12.24382,28.16257 -12.24382,31.03998 0,1.23397 2.56786,4.69678 5.70635,7.69514 10.33078,9.86953 84.6718,68.94554 86.78327,68.96341 1.13627,0.009 12.16355,-14.00206 24.50509,-31.13705 z m 61.96128,-87.36197 c 81.05641,-113.53655 105.48359,-149.15757 105.48359,-153.82179 0,-2.70208 -0.93894,-6.97362 -2.08654,-9.49232 -1.7136,-3.76096 -2.89041,-4.37824 -6.58425,-3.45371 -10.39124,2.60084 -267.68477,114.34241 -269.31765,116.96359 -1.2768,2.0496 -0.67056,7.8204 2.12118,20.1917 6.20426,27.49347 5.23645,25.74212 16.04108,29.02776 22.25452,6.76749 120.80602,29.17637 127.26329,28.93745 6.99193,-0.25872 7.1125,-0.38496 27.0793,-28.35268 z"
     id="path508"
     transform="scale(0.75009503)" />
</svg>
