<?xml version="1.0" encoding="UTF-8" standalone="no"?>
<svg
   width="7.11111in"
   height="7.11111in"
   viewBox="0 0 512 512"
   version="1.1"
   id="svg1021"
   sodipodi:docname="url_thin.svg"
   inkscape:export-filename="/home/jollion/Dev/bacmman/bacmman-gui/src/main/resources/url_thin64.png"
   inkscape:export-xdpi="9.000001"
   inkscape:export-ydpi="9.000001"
   inkscape:version="1.1.1 (3bf5ae0d25, 2021-09-20)"
   xmlns:inkscape="http://www.inkscape.org/namespaces/inkscape"
   xmlns:sodipodi="http://sodipodi.sourceforge.net/DTD/sodipodi-0.dtd"
   xmlns="http://www.w3.org/2000/svg"
   xmlns:svg="http://www.w3.org/2000/svg">
  <defs
     id="defs1025" />
  <sodipodi:namedview
     id="namedview1023"
     pagecolor="#ffffff"
     bordercolor="#666666"
     borderopacity="1.0"
     inkscape:pageshadow="2"
     inkscape:pageopacity="0.0"
     inkscape:pagecheckerboard="0"
     inkscape:document-units="in"
     showgrid="false"
     inkscape:zoom="0.63940438"
     inkscape:cx="553.64025"
     inkscape:cy="673.28285"
     inkscape:window-width="2492"
     inkscape:window-height="1376"
     inkscape:window-x="0"
     inkscape:window-y="0"
     inkscape:window-maximized="1"
     inkscape:current-layer="svg1021" />
  <path
     style="fill:#000000;stroke-width:0.524273"
     d="m 242.20864,332.64062 c -8.32216,-6.39501 -30.49148,-26.74019 -35.16063,-32.26754 -12.20497,-14.44826 -19.99086,-30.4613 -23.90591,-49.16663 -1.18417,-5.65774 -1.39184,-8.14565 -1.62803,-19.50381 -0.36461,-17.53397 0.63895,-25.506 4.81542,-38.25257 1.83584,-5.60301 7.14642,-16.812 10.7683,-22.72858 6.51477,-10.64229 9.36217,-13.76763 60.4363,-66.33571 10.30952,-10.61107 21.39868,-22.105042 24.64257,-25.54216 17.85637,-18.919938 37.153,-29.303361 62.21372,-33.47689 7.76144,-1.292564 26.39058,-1.316586 33.54056,-0.04325 43.24036,7.700651 76.22871,40.354786 85.01237,84.15107 1.69375,8.4452 2.47168,19.53707 1.85486,26.44695 -1.73176,19.40008 -3.64706,27.60951 -9.38853,40.24153 -5.25616,11.56427 -11.38666,20.22474 -23.59057,33.32609 -11.2477,12.07481 -62.6066,64.53476 -70.14575,71.64956 l -5.74926,5.42567 0.33441,-6.60715 c 0.19687,-3.88946 0.0887,-8.95006 -0.26301,-12.30318 -0.64262,-6.12698 0.0518,-17.3241 1.21513,-19.5928 1.5827,-3.0866 24.79177,-28.61163 46.45753,-51.09336 19.37466,-20.10436 23.22854,-24.98907 28.05399,-35.55784 4.68127,-10.25299 6.96145,-19.0971 7.40179,-28.70923 0.84886,-18.53012 -4.47437,-36.36828 -15.35703,-51.4615 C 420.41241,96.586972 411.61943,88.185312 406.13665,84.39366 392.9163,75.251051 377.17339,69.946439 363.1107,69.895956 c -11.66036,-0.04186 -21.41607,2.408458 -33.28057,8.358995 -9.64956,4.839653 -15.32952,9.153253 -23.92041,18.166158 -4.00406,4.200771 -16.75729,17.416271 -28.34048,29.367781 -24.88334,25.67458 -48.35334,50.53135 -51.90835,54.97546 -16.32809,20.41168 -22.36738,41.09436 -18.36667,62.89999 2.54956,13.89622 7.22984,24.44899 14.55102,32.80861 5.91351,6.7523 25.54789,26.30065 33.90537,33.75681 3.56311,3.17883 6.55336,5.96449 6.64503,6.19034 0.24727,0.6093 -3.45451,7.25392 -5.45981,9.80022 -2.05225,2.60593 -9.72353,8.6236 -10.98913,8.62032 -0.48291,-0.001 -2.16504,-0.99126 -3.73806,-2.20002 z"
     id="path4770" />
  <path
     style="fill:#000000;stroke-width:0.524273"
     d="m 146.52701,468.54204 c -2.43104,-0.53218 -7.11112,-1.34825 -10.40018,-1.8135 -19.80917,-2.80202 -35.90726,-9.62882 -50.374719,-21.36266 -23.897516,-19.38209 -37.834527,-48.84828 -38.900213,-82.24439 -0.43114,-13.5109 1.58263,-25.45373 6.664848,-39.52646 5.192363,-14.37773 12.474129,-26.1525 24.984832,-40.401 5.805658,-6.6121 10.207291,-10.80103 36.291452,-34.53765 11.0038,-10.01348 24.92703,-22.68516 30.94053,-28.1593 7.98271,-7.26674 10.98255,-9.70887 11.11489,-9.04853 0.0997,0.49744 -0.22509,3.03096 -0.72174,5.63003 -0.95646,5.00532 -0.88953,7.03045 0.53802,16.27863 0.42631,2.76178 0.77677,7.18197 0.77879,9.82264 0.003,4.67994 -0.039,4.84884 -1.68635,6.68629 -1.79793,2.00542 -11.41821,11.17721 -32.11055,30.61357 -14.57442,13.68978 -31.965494,31.41715 -35.543879,36.23118 -10.955294,14.73824 -17.247716,34.67631 -16.231867,51.43202 2.244681,37.0244 30.485216,67.58119 67.465306,72.99875 8.70473,1.27524 14.40926,1.13366 22.94682,-0.56953 14.55692,-2.90401 24.77338,-7.98274 35.94508,-17.86874 4.11896,-3.64493 31.60048,-31.99475 71.02836,-73.27257 15.89161,-16.63724 23.51507,-26.48852 28.82055,-37.24288 8.30191,-16.82819 9.53985,-36.8842 3.41372,-55.30611 -2.19349,-6.59606 -6.30326,-14.62791 -9.72474,-19.00537 -3.53439,-4.52191 -31.48459,-32.92852 -37.46713,-38.07893 -2.35954,-2.03135 -4.29007,-4.00975 -4.29007,-4.39645 0,-1.71815 3.37692,-8.70596 5.25569,-10.87548 2.16654,-2.50186 5.79545,-4.83858 9.94815,-6.40582 l 2.46361,-0.92978 2.86263,2.24486 c 4.19856,3.29251 22.26639,20.80382 30.85911,29.9086 14.62261,15.49403 23.82043,33.05643 27.66345,52.82088 2.30081,11.83296 1.94396,32.69096 -0.79631,46.54513 -4.28839,21.68109 -11.9732,33.7719 -41.80685,65.7763 -13.94256,14.95704 -60.52015,62.42659 -66.08999,67.35558 -15.99981,14.15898 -31.41353,21.39686 -52.38651,24.59934 -5.94744,0.90814 -12.4011,2.05913 -16.25465,2.89896 -0.42901,0.0935 -2.76905,-0.26543 -5.20009,-0.79761 z"
     id="path4731" />
</svg>
